<svg width="1601" height="1401" viewBox="0 0 1601 1401" fill="none" xmlns="http://www.w3.org/2000/svg">
<path d="M130.615 993.706C97.1087 973.878 64.0324 954.349 30.9582 934.818C20.9638 928.916 10.9751 923.005 0.978516 917.095V0.489291L800.878 473.698L1600.98 0.364258V917.002L1394.69 1039.01V434.78L800.863 786.073L206.907 434.695V1038.53C193.114 1031.25 180.885 1023.43 168.401 1016.1C155.927 1008.78 143.496 1001.37 130.615 993.706Z" fill="white"/>
<path d="M400.906 957.722C400.929 918.954 400.95 880.912 401 842.87C401 842.479 401.373 842.089 401.928 841.004L800.883 1076.97L1200.76 840.441V1163.8L800.868 1400.36L400.905 1163.76L400.906 957.722Z" fill="white"/>
</svg>
