<svg width="1200" height="1400" fill="none" xmlns="http://www.w3.org/2000/svg">
<path d="M558.882 1035.13L387.779 864.029L558.882 692.925C562.161 689.606 563.999 685.129 563.999 680.464C563.999 675.799 562.161 671.322 558.882 668.003L478.054 587.175C476.42 585.535 474.478 584.233 472.339 583.345C470.201 582.457 467.908 582 465.593 582C463.277 582 460.985 582.457 458.847 583.345C456.708 584.233 454.766 585.535 453.132 587.175L282.029 758.279L110.925 587.175C107.62 583.871 103.138 582.015 98.4641 582.015C93.7906 582.015 89.3084 583.871 86.0033 587.175L5.175 668.003C3.53473 669.637 2.23324 671.579 1.34519 673.718C0.457137 675.856 0 678.149 0 680.464C0 682.78 0.457137 685.072 1.34519 687.211C2.23324 689.349 3.53473 691.291 5.175 692.925L176.279 864.029L5.175 1035.13C1.87083 1038.44 0.0146435 1042.92 0.0146435 1047.59C0.0146435 1052.27 1.87083 1056.75 5.175 1060.05L86.0033 1140.88C87.6375 1142.52 89.5794 1143.82 91.7178 1144.71C93.8561 1145.6 96.1487 1146.06 98.4641 1146.06C100.78 1146.06 103.072 1145.6 105.211 1144.71C107.349 1143.82 109.291 1142.52 110.925 1140.88L282.029 969.779L453.132 1140.88C456.437 1144.19 460.919 1146.04 465.593 1146.04C470.266 1146.04 474.749 1144.19 478.054 1140.88L558.882 1060.05C560.522 1058.42 561.824 1056.48 562.712 1054.34C563.6 1052.2 564.057 1049.91 564.057 1047.59C564.057 1045.28 563.6 1042.98 562.712 1040.85C561.824 1038.71 560.522 1036.77 558.882 1035.13Z" fill="black"/>
<path d="M1194.88 1035.13L1023.78 864.029L1194.88 692.925C1198.16 689.606 1200 685.129 1200 680.464C1200 675.799 1198.16 671.322 1194.88 668.003L1114.05 587.175C1112.42 585.535 1110.48 584.233 1108.34 583.345C1106.2 582.457 1103.91 582 1101.59 582C1099.28 582 1096.98 582.457 1094.85 583.345C1092.71 584.233 1090.77 585.535 1089.13 587.175L918.029 758.279L746.925 587.175C743.62 583.871 739.138 582.015 734.464 582.015C729.791 582.015 725.308 583.871 722.003 587.175L641.175 668.003C639.535 669.637 638.233 671.579 637.345 673.718C636.457 675.856 636 678.149 636 680.464C636 682.78 636.457 685.072 637.345 687.211C638.233 689.349 639.535 691.291 641.175 692.925L812.279 864.029L641.175 1035.13C637.871 1038.44 636.015 1042.92 636.015 1047.59C636.015 1052.27 637.871 1056.75 641.175 1060.05L722.003 1140.88C723.637 1142.52 725.579 1143.82 727.718 1144.71C729.856 1145.6 732.149 1146.06 734.464 1146.06C736.78 1146.06 739.072 1145.6 741.211 1144.71C743.349 1143.82 745.291 1142.52 746.925 1140.88L918.029 969.779L1089.13 1140.88C1092.44 1144.19 1096.92 1146.04 1101.59 1146.04C1106.27 1146.04 1110.75 1144.19 1114.05 1140.88L1194.88 1060.05C1196.52 1058.42 1197.82 1056.48 1198.71 1054.34C1199.6 1052.2 1200.06 1049.91 1200.06 1047.59C1200.06 1045.28 1199.6 1042.98 1198.71 1040.85C1197.82 1038.71 1196.52 1036.77 1194.88 1035.13Z" fill="black"/>
<circle cx="282" cy="282" r="282" fill="black"/>
<circle cx="918" cy="282" r="282" fill="black"/>
</svg>
